<svg width="273" height="278" viewBox="0 0 273 278" fill="none" xmlns="http://www.w3.org/2000/svg">
<path d="M323 -22V277.895H140.5H-55.0001V-22H323Z" fill="#21311A"/>
<path d="M249.029 41.6842C210.7 83.8917 52.3081 99.7428 135.015 63.445C217.722 27.1472 173.855 47.487 249.029 81.579C324.202 115.671 249.029 41.6842 249.029 41.6842Z" stroke="#574040" stroke-opacity="0.3" stroke-width="5"/>
<path d="M184.216 72.8575C180.122 62.0828 164.557 44.2249 162.75 54.4916M162.75 54.4916C136.171 58.1932 171.198 66.3487 131.85 82.7919C135.737 80.863 170.066 83.2655 165.685 69.3916C163.21 61.5528 167.597 60.9884 162.75 54.4916Z" stroke="#574040" stroke-opacity="0.3" stroke-width="5"/>
<path d="M242.795 47.1654C262.506 65.1425 255.086 77.4587 248.912 81.3696M248.912 81.3696C262.279 89.1915 284.392 99.0683 265.904 76.0004C247.417 52.9324 246.873 69.9682 248.912 81.3696Z" stroke="#574040" stroke-opacity="0.3" stroke-width="5"/>
<path d="M77.5973 48.4513C39.2683 90.6588 -119.123 106.51 -36.4162 70.212C46.2908 33.9142 2.42352 54.2541 77.5973 88.346C152.771 122.438 77.5973 48.4513 77.5973 48.4513Z" stroke="#574040" stroke-opacity="0.3" stroke-width="5"/>
<path d="M12.7847 79.6246C8.69041 68.8499 -6.87432 50.9919 -8.68161 61.2587M-8.68161 61.2587C-35.2604 64.9603 -0.232841 73.1158 -39.5813 89.559C-35.6941 87.6301 -1.3655 90.0326 -5.74593 76.1586C-8.22085 68.3199 -3.83428 67.7555 -8.68161 61.2587Z" stroke="#574040" stroke-opacity="0.3" stroke-width="5"/>
<path d="M71.3634 53.9324C91.0744 71.9095 83.6545 84.2257 77.4806 88.1366M77.4806 88.1366C90.8478 95.9585 112.96 105.835 94.4728 82.7674C75.9853 59.6994 75.4416 76.7352 77.4806 88.1366Z" stroke="#574040" stroke-opacity="0.3" stroke-width="5"/>
<path d="M249.029 122.128C210.7 164.335 52.3081 180.186 135.015 143.888C217.722 107.59 173.855 127.93 249.029 162.022C324.202 196.114 249.029 122.128 249.029 122.128Z" stroke="#574040" stroke-opacity="0.3" stroke-width="5"/>
<path d="M184.216 153.301C180.122 142.526 164.557 124.668 162.75 134.935M162.75 134.935C136.171 138.637 171.198 146.792 131.85 163.235C135.737 161.306 170.066 163.709 165.685 149.835C163.21 141.996 167.597 141.432 162.75 134.935Z" stroke="#574040" stroke-opacity="0.3" stroke-width="5"/>
<path d="M242.795 127.609C262.506 145.586 255.086 157.902 248.912 161.813M248.912 161.813C262.279 169.635 284.392 179.512 265.904 156.444C247.417 133.376 246.873 150.412 248.912 161.813Z" stroke="#574040" stroke-opacity="0.3" stroke-width="5"/>
<path d="M77.5973 128.895C39.2683 171.102 -119.123 186.953 -36.4162 150.655C46.2908 114.358 2.42352 134.697 77.5973 168.789C152.771 202.881 77.5973 128.895 77.5973 128.895Z" stroke="#574040" stroke-opacity="0.3" stroke-width="5"/>
<path d="M12.7847 160.068C8.69041 149.293 -6.87432 131.435 -8.68161 141.702M-8.68161 141.702C-35.2604 145.404 -0.232841 153.559 -39.5813 170.002C-35.6941 168.073 -1.3655 170.476 -5.74593 156.602C-8.22085 148.763 -3.83428 148.199 -8.68161 141.702Z" stroke="#574040" stroke-opacity="0.3" stroke-width="5"/>
<path d="M71.3634 134.376C91.0744 152.353 83.6545 164.669 77.4806 168.58M77.4806 168.58C90.8478 176.402 112.96 186.279 94.4728 163.211C75.9853 140.143 75.4416 157.179 77.4806 168.58Z" stroke="#574040" stroke-opacity="0.3" stroke-width="5"/>
<path d="M249.029 202.571C210.7 244.778 52.3081 260.629 135.015 224.332C217.722 188.034 173.855 208.374 249.029 242.466C324.202 276.557 249.029 202.571 249.029 202.571Z" stroke="#574040" stroke-opacity="0.3" stroke-width="5"/>
<path d="M184.216 233.744C180.122 222.969 164.557 205.112 162.75 215.378M162.75 215.378C136.171 219.08 171.198 227.235 131.85 243.679C135.737 241.75 170.066 244.152 165.685 230.278C163.21 222.439 167.597 221.875 162.75 215.378Z" stroke="#574040" stroke-opacity="0.3" stroke-width="5"/>
<path d="M242.795 208.052C262.506 226.029 255.086 238.345 248.912 242.256M248.912 242.256C262.279 250.078 284.392 259.955 265.904 236.887C247.417 213.819 246.873 230.855 248.912 242.256Z" stroke="#574040" stroke-opacity="0.3" stroke-width="5"/>
<path d="M77.5973 209.338C39.2683 251.545 -119.123 267.396 -36.4162 231.099C46.2908 194.801 2.42352 215.141 77.5973 249.233C152.771 283.325 77.5973 209.338 77.5973 209.338Z" stroke="#574040" stroke-opacity="0.3" stroke-width="5"/>
<path d="M12.7847 240.511C8.69041 229.737 -6.87432 211.879 -8.68161 222.145M-8.68161 222.145C-35.2604 225.847 -0.232841 234.002 -39.5813 250.446C-35.6941 248.517 -1.3655 250.919 -5.74593 237.045C-8.22085 229.206 -3.83428 228.642 -8.68161 222.145Z" stroke="#574040" stroke-opacity="0.3" stroke-width="5"/>
<path d="M71.3634 214.819C91.0744 232.796 83.6545 245.112 77.4806 249.023M77.4806 249.023C90.8478 256.845 112.96 266.722 94.4728 243.654C75.9853 220.586 75.4416 237.622 77.4806 249.023Z" stroke="#574040" stroke-opacity="0.3" stroke-width="5"/>
</svg>
