<svg width="13" height="13" viewBox="0 0 13 13" fill="none" xmlns="http://www.w3.org/2000/svg">
<path d="M8.92739 4.3964C9.24426 4.3964 9.50114 4.13952 9.50114 3.82265C9.50114 3.50578 9.24426 3.2489 8.92739 3.2489C8.61051 3.2489 8.35364 3.50578 8.35364 3.82265C8.35364 4.13952 8.61051 4.3964 8.92739 4.3964Z" fill="#6A2626"/>
<path d="M6.375 3.9198C5.88942 3.9198 5.41473 4.06379 5.01098 4.33357C4.60723 4.60335 4.29255 4.98679 4.10672 5.43542C3.92089 5.88404 3.87227 6.3777 3.96701 6.85395C4.06174 7.33021 4.29557 7.76768 4.63893 8.11104C4.9823 8.4544 5.41977 8.68823 5.89602 8.78297C6.37228 8.8777 6.86593 8.82908 7.31456 8.64325C7.76318 8.45743 8.14663 8.14274 8.4164 7.73899C8.68618 7.33524 8.83018 6.86056 8.83018 6.37497C8.83028 6.05252 8.76685 5.73322 8.6435 5.43529C8.52015 5.13737 8.33931 4.86667 8.11131 4.63867C7.8833 4.41066 7.6126 4.22982 7.31468 4.10648C7.01676 3.98313 6.69745 3.9197 6.375 3.9198ZM6.375 7.96872C6.05979 7.96872 5.75165 7.87525 5.48956 7.70013C5.22747 7.525 5.0232 7.27609 4.90257 6.98487C4.78194 6.69365 4.75038 6.3732 4.81188 6.06405C4.87337 5.75489 5.02516 5.47091 5.24805 5.24802C5.47094 5.02513 5.75492 4.87334 6.06408 4.81184C6.37324 4.75035 6.69369 4.78191 6.9849 4.90254C7.27612 5.02317 7.52503 5.22744 7.70016 5.48953C7.87528 5.75162 7.96875 6.05976 7.96875 6.37497C7.96875 6.79766 7.80084 7.20304 7.50195 7.50192C7.20307 7.80081 6.79769 7.96872 6.375 7.96872Z" fill="#6A2626"/>
<path d="M6.375 2.45517C7.65159 2.45517 7.803 2.45995 8.30702 2.48306C8.6102 2.48633 8.91053 2.542 9.19474 2.64762C9.40094 2.72729 9.58819 2.84919 9.7445 3.0055C9.90081 3.1618 10.0227 3.34906 10.1024 3.55526C10.208 3.83947 10.2637 4.1398 10.2669 4.44298C10.29 4.947 10.2948 5.09841 10.2948 6.3754C10.2948 7.65239 10.29 7.803 10.2669 8.30702C10.2637 8.6102 10.208 8.91053 10.1024 9.19474C10.0227 9.40094 9.90081 9.58819 9.7445 9.7445C9.58819 9.90081 9.40094 10.0227 9.19474 10.1024C8.91053 10.208 8.6102 10.2637 8.30702 10.2669C7.803 10.29 7.65159 10.2948 6.375 10.2948C5.09841 10.2948 4.947 10.29 4.44298 10.2669C4.1398 10.2637 3.83947 10.208 3.55526 10.1024C3.34906 10.0227 3.1618 9.90081 3.0055 9.7445C2.84919 9.58819 2.72729 9.40094 2.64762 9.19474C2.542 8.91053 2.48633 8.6102 2.48306 8.30702C2.45995 7.803 2.45517 7.65159 2.45517 6.375C2.45517 5.09841 2.45995 4.947 2.48306 4.44298C2.48633 4.1398 2.542 3.83947 2.64762 3.55526C2.72729 3.34906 2.84919 3.1618 3.0055 3.0055C3.1618 2.84919 3.34906 2.72729 3.55526 2.64762C3.83947 2.542 4.1398 2.48633 4.44298 2.48306C4.947 2.45995 5.09841 2.45517 6.375 2.45517ZM6.375 1.59375C5.07649 1.59375 4.91353 1.59933 4.40353 1.62244C4.00699 1.63039 3.61467 1.70557 3.24328 1.84477C2.92567 1.96769 2.63722 2.15557 2.3964 2.3964C2.15557 2.63722 1.96769 2.92567 1.84477 3.24328C1.70552 3.6148 1.63035 4.00725 1.62244 4.40393C1.59933 4.91393 1.59375 5.07609 1.59375 6.375C1.59375 7.67391 1.59933 7.83647 1.62244 8.34647C1.63039 8.74301 1.70557 9.13533 1.84477 9.50672C1.96769 9.82433 2.15557 10.1128 2.3964 10.3536C2.63722 10.5944 2.92567 10.7823 3.24328 10.9052C3.6148 11.0445 4.00725 11.1197 4.40393 11.1276C4.91393 11.1507 5.07649 11.1562 6.375 11.1562C7.67351 11.1562 7.83647 11.1507 8.34647 11.1276C8.74314 11.1197 9.1356 11.0445 9.50712 10.9052C9.82473 10.7823 10.1132 10.5944 10.354 10.3536C10.5948 10.1128 10.7827 9.82433 10.9056 9.50672C11.0447 9.13518 11.1198 8.74272 11.1276 8.34607C11.1507 7.83607 11.1562 7.67391 11.1562 6.375C11.1562 5.07609 11.1507 4.91353 11.1276 4.40353C11.1196 4.00699 11.0444 3.61467 10.9052 3.24328C10.7823 2.92567 10.5944 2.63722 10.3536 2.3964C10.1128 2.15557 9.82433 1.96769 9.50672 1.84477C9.13518 1.70566 8.74272 1.63062 8.34607 1.62284C7.83607 1.59893 7.67391 1.59375 6.375 1.59375Z" fill="#6A2626"/>
</svg>
