<svg width="1280" height="832" viewBox="0 0 1280 832" fill="none" xmlns="http://www.w3.org/2000/svg">
<g clip-path="url(#clip0_287_14)">
<rect width="1280" height="832" fill="#21311A"/>
<path d="M238.908 16.8391C227.076 72.6118 98.2625 166.132 151.402 93.0973C204.542 20.0621 176.905 59.739 259.015 51.2962C341.126 42.8535 238.908 16.8391 238.908 16.8391Z" stroke="#AF9999" stroke-opacity="0.3" stroke-width="5"/>
<path d="M198.641 76.4293C189.674 69.1868 167.231 61.6075 170.844 71.3858M170.844 71.3858C149.754 87.9787 184.117 77.3686 158.42 111.402C160.805 107.777 191.665 92.5505 180.889 82.7753C174.801 77.2523 178.305 74.554 170.844 71.3858Z" stroke="#AF9999" stroke-opacity="0.3" stroke-width="5"/>
<path d="M236.287 24.715C262.372 30.3074 262.17 44.6846 258.809 51.1741M258.809 51.1741C274.297 51.1928 298.373 48.5786 270.779 37.9725C243.185 27.3665 251.302 42.3544 258.809 51.1741Z" stroke="#AF9999" stroke-opacity="0.3" stroke-width="5"/>
<path d="M94.2536 109.086C82.4217 164.859 -46.3921 258.379 6.74764 185.344C59.8874 112.309 32.2506 151.986 114.361 143.543C196.471 135.1 94.2536 109.086 94.2536 109.086Z" stroke="#AF9999" stroke-opacity="0.3" stroke-width="5"/>
<path d="M53.9865 168.676C45.0198 161.434 22.576 153.854 26.1895 163.633M26.1895 163.633C5.09902 180.226 39.4628 169.615 13.7649 203.649C16.1501 200.024 47.0106 184.797 36.2347 175.022C30.1463 169.499 33.6506 166.801 26.1895 163.633Z" stroke="#AF9999" stroke-opacity="0.3" stroke-width="5"/>
<path d="M91.6319 116.962C117.717 122.554 117.516 136.931 114.154 143.421M114.154 143.421C129.642 143.44 153.719 140.825 126.124 130.219C98.5304 119.613 106.647 134.601 114.154 143.421Z" stroke="#AF9999" stroke-opacity="0.3" stroke-width="5"/>
<path d="M220.908 274.839C209.076 330.612 80.2625 424.132 133.402 351.097C186.542 278.062 158.905 317.739 241.015 309.296C323.126 300.853 220.908 274.839 220.908 274.839Z" stroke="#AF9999" stroke-opacity="0.3" stroke-width="5"/>
<path d="M180.641 334.429C171.674 327.187 149.231 319.608 152.844 329.386M152.844 329.386C131.754 345.979 166.117 335.369 140.419 369.402C142.805 365.777 173.665 350.551 162.889 340.775C156.801 335.252 160.305 332.554 152.844 329.386Z" stroke="#AF9999" stroke-opacity="0.3" stroke-width="5"/>
<path d="M218.287 282.715C244.372 288.307 244.17 302.685 240.809 309.174M240.809 309.174C256.297 309.193 280.373 306.579 252.779 295.973C225.185 285.366 233.302 300.354 240.809 309.174Z" stroke="#AF9999" stroke-opacity="0.3" stroke-width="5"/>
<path d="M76.2536 367.086C64.4217 422.859 -64.3921 516.379 -11.2524 443.344C41.8874 370.309 14.2506 409.986 96.3608 401.543C178.471 393.1 76.2536 367.086 76.2536 367.086Z" stroke="#AF9999" stroke-opacity="0.3" stroke-width="5"/>
<path d="M76.2536 367.086C64.4217 422.859 -64.3921 516.379 -11.2524 443.344C41.8874 370.309 14.2506 409.986 96.3608 401.543C178.471 393.1 76.2536 367.086 76.2536 367.086Z" stroke="#AF9999" stroke-opacity="0.3" stroke-width="5"/>
<path d="M35.9865 426.676C27.0198 419.434 4.57599 411.854 8.18951 421.633M8.18951 421.633C-12.901 438.226 21.4628 427.615 -4.23505 461.649C-1.84985 458.024 29.0106 442.797 18.2347 433.022C12.1463 427.499 15.6506 424.801 8.18951 421.633Z" stroke="#AF9999" stroke-opacity="0.3" stroke-width="5"/>
<path d="M73.6319 374.962C99.7168 380.554 99.5156 394.931 96.1544 401.421M96.1544 401.421C111.642 401.44 135.719 398.825 108.124 388.219C80.5304 377.613 88.6469 392.601 96.1544 401.421Z" stroke="#AF9999" stroke-opacity="0.3" stroke-width="5"/>
<path d="M522.908 88.8391C511.076 144.612 382.263 238.132 435.402 165.097C488.542 92.0621 460.905 131.739 543.015 123.296C625.126 114.853 522.908 88.8391 522.908 88.8391Z" stroke="#AF9999" stroke-opacity="0.3" stroke-width="5"/>
<path d="M482.641 148.429C473.674 141.187 451.231 133.608 454.844 143.386M454.844 143.386C433.754 159.979 468.117 149.369 442.42 183.402C444.805 179.777 475.665 164.551 464.889 154.775C458.801 149.252 462.305 146.554 454.844 143.386Z" stroke="#AF9999" stroke-opacity="0.3" stroke-width="5"/>
<path d="M520.287 96.715C546.372 102.307 546.17 116.685 542.809 123.174M542.809 123.174C558.297 123.193 582.373 120.579 554.779 109.973C527.185 99.3665 535.302 114.354 542.809 123.174Z" stroke="#AF9999" stroke-opacity="0.3" stroke-width="5"/>
<path d="M378.254 181.086C366.422 236.859 237.608 330.379 290.748 257.344C343.887 184.309 316.251 223.986 398.361 215.543C480.471 207.1 378.254 181.086 378.254 181.086Z" stroke="#AF9999" stroke-opacity="0.3" stroke-width="5"/>
<path d="M337.986 240.676C329.02 233.434 306.576 225.854 310.189 235.633M310.189 235.633C289.099 252.226 323.463 241.615 297.765 275.649C300.15 272.024 331.011 256.797 320.235 247.022C314.146 241.499 317.65 238.801 310.189 235.633Z" stroke="#AF9999" stroke-opacity="0.3" stroke-width="5"/>
<path d="M375.632 188.962C401.717 194.554 401.516 208.931 398.154 215.421M398.154 215.421C413.642 215.44 437.719 212.825 410.124 202.219C382.53 191.613 390.647 206.601 398.154 215.421Z" stroke="#AF9999" stroke-opacity="0.3" stroke-width="5"/>
<path d="M821.908 -93.1609C810.076 -37.3882 681.263 56.1325 734.402 -16.9027C787.542 -89.9379 759.905 -50.261 842.015 -58.7038C924.126 -67.1465 821.908 -93.1609 821.908 -93.1609Z" stroke="#AF9999" stroke-opacity="0.3" stroke-width="5"/>
<path d="M781.641 -33.5707C772.674 -40.8132 750.231 -48.3925 753.844 -38.6142M753.844 -38.6142C732.754 -22.0213 767.117 -32.6314 741.42 1.40242C743.805 -2.22275 774.665 -17.4495 763.889 -27.2247C757.801 -32.7477 761.305 -35.446 753.844 -38.6142Z" stroke="#AF9999" stroke-opacity="0.3" stroke-width="5"/>
<path d="M677.254 -0.914074C665.422 54.8586 536.608 148.379 589.748 75.3441C642.887 2.30894 615.251 41.9858 697.361 33.5431C779.471 25.1003 677.254 -0.914074 677.254 -0.914074Z" stroke="#AF9999" stroke-opacity="0.3" stroke-width="5"/>
<path d="M636.986 58.6761C628.02 51.4336 605.576 43.8544 609.189 53.6326M609.189 53.6326C588.099 70.2255 622.463 59.6154 596.765 93.6492C599.15 90.0241 630.011 74.7973 619.235 65.0221C613.146 59.4992 616.65 56.8009 609.189 53.6326Z" stroke="#AF9999" stroke-opacity="0.3" stroke-width="5"/>
<path d="M674.632 6.96181C700.717 12.5542 700.516 26.9314 697.154 33.421M697.154 33.421C712.642 33.4396 736.719 30.8254 709.124 20.2194C681.53 9.61333 689.647 24.6012 697.154 33.421Z" stroke="#AF9999" stroke-opacity="0.3" stroke-width="5"/>
<path d="M1268.91 154.839C1257.08 210.612 1128.26 304.132 1181.4 231.097C1234.54 158.062 1206.91 197.739 1289.02 189.296C1371.13 180.853 1268.91 154.839 1268.91 154.839Z" stroke="#AF9999" stroke-opacity="0.3" stroke-width="5"/>
<path d="M1228.64 214.429C1219.67 207.187 1197.23 199.608 1200.84 209.386M1200.84 209.386C1179.75 225.979 1214.12 215.369 1188.42 249.402C1190.8 245.777 1221.67 230.551 1210.89 220.775C1204.8 215.252 1208.31 212.554 1200.84 209.386Z" stroke="#AF9999" stroke-opacity="0.3" stroke-width="5"/>
<path d="M1266.29 162.715C1292.37 168.307 1292.17 182.685 1288.81 189.174M1288.81 189.174C1304.3 189.193 1328.37 186.579 1300.78 175.973C1273.19 165.366 1281.3 180.354 1288.81 189.174Z" stroke="#AF9999" stroke-opacity="0.3" stroke-width="5"/>
<path d="M1124.25 247.086C1112.42 302.859 983.608 396.379 1036.75 323.344C1089.89 250.309 1062.25 289.986 1144.36 281.543C1226.47 273.1 1124.25 247.086 1124.25 247.086Z" stroke="#AF9999" stroke-opacity="0.3" stroke-width="5"/>
<path d="M1083.99 306.676C1075.02 299.434 1052.58 291.854 1056.19 301.633M1056.19 301.633C1035.1 318.226 1069.46 307.615 1043.76 341.649C1046.15 338.024 1077.01 322.797 1066.23 313.022C1060.15 307.499 1063.65 304.801 1056.19 301.633Z" stroke="#AF9999" stroke-opacity="0.3" stroke-width="5"/>
<path d="M1121.63 254.962C1147.72 260.554 1147.52 274.931 1144.15 281.421M1144.15 281.421C1159.64 281.44 1183.72 278.825 1156.12 268.219C1128.53 257.613 1136.65 272.601 1144.15 281.421Z" stroke="#AF9999" stroke-opacity="0.3" stroke-width="5"/>
<path d="M368.908 697.839C357.076 753.612 228.263 847.132 281.402 774.097C334.542 701.062 306.905 740.739 389.015 732.296C471.126 723.853 368.908 697.839 368.908 697.839Z" stroke="#AF9999" stroke-opacity="0.3" stroke-width="5"/>
<path d="M328.641 757.429C319.674 750.187 297.231 742.608 300.844 752.386M300.844 752.386C279.754 768.979 314.117 758.369 288.42 792.402C290.805 788.777 321.665 773.551 310.889 763.775C304.801 758.252 308.305 755.554 300.844 752.386Z" stroke="#AF9999" stroke-opacity="0.3" stroke-width="5"/>
<path d="M366.287 705.715C392.372 711.307 392.17 725.685 388.809 732.174M388.809 732.174C404.297 732.193 428.373 729.579 400.779 718.973C373.185 708.366 381.302 723.354 388.809 732.174Z" stroke="#AF9999" stroke-opacity="0.3" stroke-width="5"/>
<path d="M224.254 790.086C212.422 845.859 83.6079 939.379 136.748 866.344C189.887 793.309 162.251 832.986 244.361 824.543C326.471 816.1 224.254 790.086 224.254 790.086Z" stroke="#AF9999" stroke-opacity="0.3" stroke-width="5"/>
<path d="M183.986 849.676C175.02 842.434 152.576 834.854 156.19 844.633M156.19 844.633C135.099 861.226 169.463 850.615 143.765 884.649C146.15 881.024 177.011 865.797 166.235 856.022C160.146 850.499 163.651 847.801 156.19 844.633Z" stroke="#AF9999" stroke-opacity="0.3" stroke-width="5"/>
<path d="M221.632 797.962C247.717 803.554 247.516 817.931 244.154 824.421M244.154 824.421C259.642 824.44 283.719 821.825 256.124 811.219C228.53 800.613 236.647 815.601 244.154 824.421Z" stroke="#AF9999" stroke-opacity="0.3" stroke-width="5"/>
<path d="M670.908 511.839C659.076 567.612 530.263 661.132 583.402 588.097C636.542 515.062 608.905 554.739 691.015 546.296C773.126 537.853 670.908 511.839 670.908 511.839Z" stroke="#AF9999" stroke-opacity="0.3" stroke-width="5"/>
<path d="M630.641 571.429C621.674 564.187 599.231 556.608 602.844 566.386M602.844 566.386C581.754 582.979 616.117 572.369 590.42 606.402C592.805 602.777 623.665 587.551 612.889 577.775C606.801 572.252 610.305 569.554 602.844 566.386Z" stroke="#AF9999" stroke-opacity="0.3" stroke-width="5"/>
<path d="M668.287 519.715C694.372 525.307 694.17 539.685 690.809 546.174M690.809 546.174C706.297 546.193 730.373 543.579 702.779 532.973C675.185 522.366 683.302 537.354 690.809 546.174Z" stroke="#AF9999" stroke-opacity="0.3" stroke-width="5"/>
<path d="M526.254 604.086C514.422 659.859 385.608 753.379 438.748 680.344C491.887 607.309 464.251 646.986 546.361 638.543C628.471 630.1 526.254 604.086 526.254 604.086Z" stroke="#AF9999" stroke-opacity="0.3" stroke-width="5"/>
<path d="M485.986 663.676C477.02 656.434 454.576 648.854 458.189 658.633M458.189 658.633C437.099 675.226 471.463 664.615 445.765 698.649C448.15 695.024 479.011 679.797 468.235 670.022C462.146 664.499 465.65 661.801 458.189 658.633Z" stroke="#AF9999" stroke-opacity="0.3" stroke-width="5"/>
<path d="M523.632 611.962C549.717 617.554 549.516 631.931 546.154 638.421M546.154 638.421C561.642 638.44 585.719 635.825 558.124 625.219C530.53 614.613 538.647 629.601 546.154 638.421Z" stroke="#AF9999" stroke-opacity="0.3" stroke-width="5"/>
<path d="M969.908 329.839C958.076 385.612 829.263 479.132 882.402 406.097C935.542 333.062 907.905 372.739 990.015 364.296C1072.13 355.853 969.908 329.839 969.908 329.839Z" stroke="#AF9999" stroke-opacity="0.3" stroke-width="5"/>
<path d="M929.641 389.429C920.674 382.187 898.231 374.608 901.844 384.386M901.844 384.386C880.754 400.979 915.117 390.369 889.42 424.402C891.805 420.777 922.665 405.551 911.889 395.775C905.801 390.252 909.305 387.554 901.844 384.386Z" stroke="#AF9999" stroke-opacity="0.3" stroke-width="5"/>
<path d="M967.287 337.715C993.372 343.307 993.17 357.685 989.809 364.174M989.809 364.174C1005.3 364.193 1029.37 361.579 1001.78 350.973C974.185 340.366 982.302 355.354 989.809 364.174Z" stroke="#AF9999" stroke-opacity="0.3" stroke-width="5"/>
<path d="M825.254 422.086C813.422 477.859 684.608 571.379 737.748 498.344C790.887 425.309 763.251 464.986 845.361 456.543C927.471 448.1 825.254 422.086 825.254 422.086Z" stroke="#AF9999" stroke-opacity="0.3" stroke-width="5"/>
<path d="M784.986 481.676C776.02 474.434 753.576 466.854 757.189 476.633M757.189 476.633C736.099 493.226 770.463 482.615 744.765 516.649C747.15 513.024 778.011 497.797 767.235 488.022C761.146 482.499 764.65 479.801 757.189 476.633Z" stroke="#AF9999" stroke-opacity="0.3" stroke-width="5"/>
<path d="M822.632 429.962C848.717 435.554 848.516 449.931 845.154 456.421M845.154 456.421C860.642 456.44 884.719 453.825 857.124 443.219C829.53 432.613 837.647 447.601 845.154 456.421Z" stroke="#AF9999" stroke-opacity="0.3" stroke-width="5"/>
<path d="M1326.25 393.086C1314.42 448.859 1185.61 542.379 1238.75 469.344C1291.89 396.309 1264.25 435.986 1346.36 427.543C1428.47 419.1 1326.25 393.086 1326.25 393.086Z" stroke="#AF9999" stroke-opacity="0.3" stroke-width="5"/>
<path d="M1285.99 452.676C1277.02 445.434 1254.58 437.854 1258.19 447.633M1258.19 447.633C1237.1 464.226 1271.46 453.615 1245.76 487.649C1248.15 484.024 1279.01 468.797 1268.23 459.022C1262.15 453.499 1265.65 450.801 1258.19 447.633Z" stroke="#AF9999" stroke-opacity="0.3" stroke-width="5"/>
<path d="M570.908 843.839C559.076 899.612 430.263 993.132 483.402 920.097C536.542 847.062 508.905 886.739 591.015 878.296C673.126 869.853 570.908 843.839 570.908 843.839Z" stroke="#AF9999" stroke-opacity="0.3" stroke-width="5"/>
<path d="M872.908 657.839C861.076 713.612 732.263 807.132 785.402 734.097C838.542 661.062 810.905 700.739 893.015 692.296C975.126 683.853 872.908 657.839 872.908 657.839Z" stroke="#AF9999" stroke-opacity="0.3" stroke-width="5"/>
<path d="M832.641 717.429C823.674 710.187 801.231 702.608 804.844 712.386M804.844 712.386C783.754 728.979 818.117 718.369 792.42 752.402C794.805 748.777 825.665 733.551 814.889 723.775C808.801 718.252 812.305 715.554 804.844 712.386Z" stroke="#AF9999" stroke-opacity="0.3" stroke-width="5"/>
<path d="M870.287 665.715C896.372 671.307 896.17 685.685 892.809 692.174M892.809 692.174C908.297 692.193 932.373 689.579 904.779 678.973C877.185 668.366 885.302 683.354 892.809 692.174Z" stroke="#AF9999" stroke-opacity="0.3" stroke-width="5"/>
<path d="M728.254 750.086C716.422 805.859 587.608 899.379 640.748 826.344C693.887 753.309 666.251 792.986 748.361 784.543C830.471 776.1 728.254 750.086 728.254 750.086Z" stroke="#AF9999" stroke-opacity="0.3" stroke-width="5"/>
<path d="M687.986 809.676C679.02 802.434 656.576 794.854 660.189 804.633M660.189 804.633C639.099 821.226 673.463 810.615 647.765 844.649C650.15 841.024 681.011 825.797 670.235 816.022C664.146 810.499 667.65 807.801 660.189 804.633Z" stroke="#AF9999" stroke-opacity="0.3" stroke-width="5"/>
<path d="M725.632 757.962C751.717 763.554 751.516 777.931 748.154 784.421M748.154 784.421C763.642 784.44 787.719 781.825 760.124 771.219C732.53 760.613 740.647 775.601 748.154 784.421Z" stroke="#AF9999" stroke-opacity="0.3" stroke-width="5"/>
<path d="M1171.91 475.839C1160.08 531.612 1031.26 625.132 1084.4 552.097C1137.54 479.062 1109.91 518.739 1192.02 510.296C1274.13 501.853 1171.91 475.839 1171.91 475.839Z" stroke="#AF9999" stroke-opacity="0.3" stroke-width="5"/>
<path d="M1131.64 535.429C1122.67 528.187 1100.23 520.608 1103.84 530.386M1103.84 530.386C1082.75 546.979 1117.12 536.369 1091.42 570.402C1093.8 566.777 1124.67 551.551 1113.89 541.775C1107.8 536.252 1111.31 533.554 1103.84 530.386Z" stroke="#AF9999" stroke-opacity="0.3" stroke-width="5"/>
<path d="M1169.29 483.715C1195.37 489.307 1195.17 503.685 1191.81 510.174M1191.81 510.174C1207.3 510.193 1231.37 507.579 1203.78 496.973C1176.19 486.366 1184.3 501.354 1191.81 510.174Z" stroke="#AF9999" stroke-opacity="0.3" stroke-width="5"/>
<path d="M1027.25 568.086C1015.42 623.859 886.608 717.379 939.748 644.344C992.887 571.309 965.251 610.986 1047.36 602.543C1129.47 594.1 1027.25 568.086 1027.25 568.086Z" stroke="#AF9999" stroke-opacity="0.3" stroke-width="5"/>
<path d="M986.986 627.676C978.02 620.434 955.576 612.854 959.189 622.633M959.189 622.633C938.099 639.226 972.463 628.615 946.765 662.649C949.15 659.024 980.011 643.797 969.235 634.022C963.146 628.499 966.65 625.801 959.189 622.633Z" stroke="#AF9999" stroke-opacity="0.3" stroke-width="5"/>
<path d="M1024.63 575.962C1050.72 581.554 1050.52 595.931 1047.15 602.421M1047.15 602.421C1062.64 602.44 1086.72 599.825 1059.12 589.219C1031.53 578.613 1039.65 593.601 1047.15 602.421Z" stroke="#AF9999" stroke-opacity="0.3" stroke-width="5"/>
<path d="M981.908 797.839C970.076 853.612 841.263 947.132 894.402 874.097C947.542 801.062 919.905 840.739 1002.02 832.296C1084.13 823.853 981.908 797.839 981.908 797.839Z" stroke="#AF9999" stroke-opacity="0.3" stroke-width="5"/>
<path d="M979.287 805.715C1005.37 811.307 1005.17 825.685 1001.81 832.174M1001.81 832.174C1017.3 832.193 1041.37 829.579 1013.78 818.973C986.185 808.366 994.302 823.354 1001.81 832.174Z" stroke="#AF9999" stroke-opacity="0.3" stroke-width="5"/>
<path d="M1280.91 615.839C1269.08 671.612 1140.26 765.132 1193.4 692.097C1246.54 619.062 1218.91 658.739 1301.02 650.296C1383.13 641.853 1280.91 615.839 1280.91 615.839Z" stroke="#AF9999" stroke-opacity="0.3" stroke-width="5"/>
<path d="M1240.64 675.429C1231.67 668.187 1209.23 660.608 1212.84 670.386M1212.84 670.386C1191.75 686.979 1226.12 676.369 1200.42 710.402C1202.8 706.777 1233.67 691.551 1222.89 681.775C1216.8 676.252 1220.31 673.554 1212.84 670.386Z" stroke="#AF9999" stroke-opacity="0.3" stroke-width="5"/>
<path d="M1278.29 623.715C1304.37 629.307 1304.17 643.685 1300.81 650.174M1300.81 650.174C1316.3 650.193 1340.37 647.579 1312.78 636.973C1285.19 626.366 1293.3 641.354 1300.81 650.174Z" stroke="#AF9999" stroke-opacity="0.3" stroke-width="5"/>
<path d="M1136.25 708.086C1124.42 763.859 995.608 857.379 1048.75 784.344C1101.89 711.309 1074.25 750.986 1156.36 742.543C1238.47 734.1 1136.25 708.086 1136.25 708.086Z" stroke="#AF9999" stroke-opacity="0.3" stroke-width="5"/>
<path d="M1095.99 767.676C1087.02 760.434 1064.58 752.854 1068.19 762.633M1068.19 762.633C1047.1 779.226 1081.46 768.615 1055.76 802.649C1058.15 799.024 1089.01 783.797 1078.23 774.022C1072.15 768.499 1075.65 765.801 1068.19 762.633Z" stroke="#AF9999" stroke-opacity="0.3" stroke-width="5"/>
<path d="M1133.63 715.962C1159.72 721.554 1159.52 735.931 1156.15 742.421M1156.15 742.421C1171.64 742.44 1195.72 739.825 1168.12 729.219C1140.53 718.613 1148.65 733.601 1156.15 742.421Z" stroke="#AF9999" stroke-opacity="0.3" stroke-width="5"/>
<path d="M82.9082 638.839C71.0762 694.612 -57.7376 788.132 -4.59782 715.097C48.542 642.062 20.9052 681.739 103.015 673.296C185.125 664.853 82.9082 638.839 82.9082 638.839Z" stroke="#AF9999" stroke-opacity="0.3" stroke-width="5"/>
<path d="M42.6408 698.429C33.6741 691.187 11.2303 683.608 14.8438 693.386M14.8438 693.386C-6.24669 709.979 28.1171 699.369 2.41925 733.402C4.80445 729.777 35.6649 714.551 24.889 704.775C18.8006 699.252 22.3049 696.554 14.8438 693.386Z" stroke="#AF9999" stroke-opacity="0.3" stroke-width="5"/>
<path d="M80.2864 646.715C106.371 652.307 106.17 666.685 102.809 673.174M102.809 673.174C118.297 673.193 142.373 670.579 114.779 659.973C87.1849 649.366 95.3015 664.354 102.809 673.174Z" stroke="#AF9999" stroke-opacity="0.3" stroke-width="5"/>
<path d="M384.908 452.839C373.076 508.612 244.263 602.132 297.402 529.097C350.542 456.062 322.905 495.739 405.015 487.296C487.126 478.853 384.908 452.839 384.908 452.839Z" stroke="#AF9999" stroke-opacity="0.3" stroke-width="5"/>
<path d="M344.641 512.429C335.674 505.187 313.231 497.608 316.844 507.386M316.844 507.386C295.754 523.979 330.117 513.369 304.42 547.402C306.805 543.777 337.665 528.551 326.889 518.775C320.801 513.252 324.305 510.554 316.844 507.386Z" stroke="#AF9999" stroke-opacity="0.3" stroke-width="5"/>
<path d="M382.287 460.715C408.372 466.307 408.17 480.685 404.809 487.174M404.809 487.174C420.297 487.193 444.373 484.579 416.779 473.973C389.185 463.366 397.302 478.354 404.809 487.174Z" stroke="#AF9999" stroke-opacity="0.3" stroke-width="5"/>
<path d="M240.254 545.086C228.422 600.859 99.6079 694.379 152.748 621.344C205.887 548.309 178.251 587.986 260.361 579.543C342.471 571.1 240.254 545.086 240.254 545.086Z" stroke="#AF9999" stroke-opacity="0.3" stroke-width="5"/>
<path d="M199.986 604.676C191.02 597.434 168.576 589.854 172.189 599.633M172.189 599.633C151.099 616.226 185.463 605.615 159.765 639.649C162.15 636.024 193.011 620.797 182.235 611.022C176.146 605.499 179.65 602.801 172.189 599.633Z" stroke="#AF9999" stroke-opacity="0.3" stroke-width="5"/>
<path d="M237.632 552.962C263.717 558.554 263.516 572.931 260.154 579.421M260.154 579.421C275.642 579.44 299.719 576.825 272.124 566.219C244.53 555.613 252.647 570.601 260.154 579.421Z" stroke="#AF9999" stroke-opacity="0.3" stroke-width="5"/>
<path d="M683.908 270.839C672.076 326.612 543.263 420.132 596.402 347.097C649.542 274.062 621.905 313.739 704.015 305.296C786.126 296.853 683.908 270.839 683.908 270.839Z" stroke="#AF9999" stroke-opacity="0.3" stroke-width="5"/>
<path d="M643.641 330.429C634.674 323.187 612.231 315.608 615.844 325.386M615.844 325.386C594.754 341.979 629.117 331.369 603.42 365.402C605.805 361.777 636.665 346.551 625.889 336.775C619.801 331.252 623.305 328.554 615.844 325.386Z" stroke="#AF9999" stroke-opacity="0.3" stroke-width="5"/>
<path d="M681.287 278.715C707.372 284.307 707.17 298.685 703.809 305.174M703.809 305.174C719.297 305.193 743.373 302.579 715.779 291.973C688.185 281.366 696.302 296.354 703.809 305.174Z" stroke="#AF9999" stroke-opacity="0.3" stroke-width="5"/>
<path d="M539.254 363.086C527.422 418.859 398.608 512.379 451.748 439.344C504.887 366.309 477.251 405.986 559.361 397.543C641.471 389.1 539.254 363.086 539.254 363.086Z" stroke="#AF9999" stroke-opacity="0.3" stroke-width="5"/>
<path d="M498.986 422.676C490.02 415.434 467.576 407.854 471.189 417.633M471.189 417.633C450.099 434.226 484.463 423.615 458.765 457.649C461.15 454.024 492.011 438.797 481.235 429.022C475.146 423.499 478.65 420.801 471.189 417.633Z" stroke="#AF9999" stroke-opacity="0.3" stroke-width="5"/>
<path d="M536.632 370.962C562.717 376.554 562.516 390.931 559.154 397.421M559.154 397.421C574.642 397.44 598.719 394.825 571.124 384.219C543.53 373.613 551.647 388.601 559.154 397.421Z" stroke="#AF9999" stroke-opacity="0.3" stroke-width="5"/>
<path d="M985.908 90.8391C974.076 146.612 845.263 240.132 898.402 167.097C951.542 94.0621 923.905 133.739 1006.02 125.296C1088.13 116.853 985.908 90.8391 985.908 90.8391Z" stroke="#AF9999" stroke-opacity="0.3" stroke-width="5"/>
<path d="M945.641 150.429C936.674 143.187 914.231 135.608 917.844 145.386M917.844 145.386C896.754 161.979 931.117 151.369 905.42 185.402C907.805 181.777 938.665 166.551 927.889 156.775C921.801 151.252 925.305 148.554 917.844 145.386Z" stroke="#AF9999" stroke-opacity="0.3" stroke-width="5"/>
<path d="M983.287 98.715C1009.37 104.307 1009.17 118.685 1005.81 125.174M1005.81 125.174C1021.3 125.193 1045.37 122.579 1017.78 111.973C990.185 101.366 998.302 116.354 1005.81 125.174Z" stroke="#AF9999" stroke-opacity="0.3" stroke-width="5"/>
<path d="M841.254 183.086C829.422 238.859 700.608 332.379 753.748 259.344C806.887 186.309 779.251 225.986 861.361 217.543C943.471 209.1 841.254 183.086 841.254 183.086Z" stroke="#AF9999" stroke-opacity="0.3" stroke-width="5"/>
<path d="M800.986 242.676C792.02 235.434 769.576 227.854 773.189 237.633M773.189 237.633C752.099 254.226 786.463 243.615 760.765 277.649C763.15 274.024 794.011 258.797 783.235 249.022C777.146 243.499 780.65 240.801 773.189 237.633Z" stroke="#AF9999" stroke-opacity="0.3" stroke-width="5"/>
<path d="M838.632 190.962C864.717 196.554 864.516 210.931 861.154 217.421M861.154 217.421C876.642 217.44 900.719 214.825 873.124 204.219C845.53 193.613 853.647 208.601 861.154 217.421Z" stroke="#AF9999" stroke-opacity="0.3" stroke-width="5"/>
<path d="M1287.91 -95.1609C1276.08 -39.3882 1147.26 54.1325 1200.4 -18.9027C1253.54 -91.9379 1225.91 -52.261 1308.02 -60.7038C1390.13 -69.1465 1287.91 -95.1609 1287.91 -95.1609Z" stroke="#AF9999" stroke-opacity="0.3" stroke-width="5"/>
<path d="M1247.64 -35.5707C1238.67 -42.8132 1216.23 -50.3925 1219.84 -40.6142M1219.84 -40.6142C1198.75 -24.0213 1233.12 -34.6314 1207.42 -0.59758C1209.8 -4.22275 1240.67 -19.4495 1229.89 -29.2247C1223.8 -34.7477 1227.31 -37.446 1219.84 -40.6142Z" stroke="#AF9999" stroke-opacity="0.3" stroke-width="5"/>
<path d="M1143.25 -2.91407C1131.42 52.8586 1002.61 146.379 1055.75 73.3441C1108.89 0.308945 1081.25 39.9858 1163.36 31.5431C1245.47 23.1003 1143.25 -2.91407 1143.25 -2.91407Z" stroke="#AF9999" stroke-opacity="0.3" stroke-width="5"/>
<path d="M1102.99 56.6761C1094.02 49.4336 1071.58 41.8544 1075.19 51.6326M1075.19 51.6326C1054.1 68.2255 1088.46 57.6154 1062.76 91.6492C1065.15 88.0241 1096.01 72.7973 1085.23 63.0221C1079.15 57.4992 1082.65 54.8009 1075.19 51.6326Z" stroke="#AF9999" stroke-opacity="0.3" stroke-width="5"/>
<path d="M1140.63 4.96181C1166.72 10.5542 1166.52 24.9314 1163.15 31.421M1163.15 31.421C1178.64 31.4396 1202.72 28.8254 1175.12 18.2194C1147.53 7.61333 1155.65 22.6012 1163.15 31.421Z" stroke="#AF9999" stroke-opacity="0.3" stroke-width="5"/>
<path d="M382.843 -75.1609C371.011 -19.3882 242.197 74.1325 295.337 1.09729C348.477 -71.9379 320.84 -32.261 402.95 -40.7038C485.06 -49.1465 382.843 -75.1609 382.843 -75.1609Z" stroke="#AF9999" stroke-opacity="0.3" stroke-width="5"/>
<path d="M342.576 -15.5707C333.609 -22.8132 311.165 -30.3925 314.779 -20.6142M314.779 -20.6142C293.688 -4.02129 328.052 -14.6314 302.354 19.4024C304.74 15.7773 335.6 0.550502 324.824 -9.2247C318.736 -14.7477 322.24 -17.446 314.779 -20.6142Z" stroke="#AF9999" stroke-opacity="0.3" stroke-width="5"/>
</g>
<defs>
<clipPath id="clip0_287_14">
<rect width="1280" height="832" fill="white"/>
</clipPath>
</defs>
</svg>
