<svg width="111" height="83" viewBox="0 0 111 83" fill="none" xmlns="http://www.w3.org/2000/svg">
<path d="M0.406982 0.0319824C1.75098 0.0959816 3.51098 0.159981 5.68698 0.22398C7.86298 0.287979 10.007 0.319979 12.119 0.319979C15.127 0.319979 18.007 0.287979 20.759 0.22398C23.511 0.159981 25.463 0.127981 26.615 0.127981C31.799 0.127981 36.087 0.863981 39.479 2.33598C42.935 3.80798 45.495 5.82398 47.159 8.38398C48.887 10.88 49.751 13.696 49.751 16.832C49.751 18.752 49.367 20.8 48.599 22.976C47.831 25.152 46.487 27.2 44.567 29.12C42.711 31.04 40.151 32.64 36.887 33.92C33.623 35.136 29.495 35.744 24.503 35.744H15.287V33.824H23.543C28.087 33.824 31.543 33.12 33.911 31.712C36.343 30.24 37.975 28.32 38.807 25.952C39.703 23.52 40.151 20.832 40.151 17.888C40.151 12.832 38.935 8.92798 36.503 6.17598C34.135 3.35998 30.039 1.95198 24.215 1.95198C21.271 1.95198 19.351 2.49598 18.455 3.58398C17.559 4.67198 17.111 6.87998 17.111 10.208V57.824C17.111 60.128 17.303 61.856 17.687 63.008C18.071 64.16 18.807 64.928 19.895 65.312C21.047 65.696 22.711 65.952 24.887 66.08V68C23.415 67.872 21.559 67.808 19.319 67.808C17.143 67.744 14.935 67.712 12.695 67.712C10.199 67.712 7.86298 67.744 5.68698 67.808C3.51098 67.808 1.75098 67.872 0.406982 68V66.08C2.58298 65.952 4.21498 65.696 5.30298 65.312C6.45498 64.928 7.22298 64.16 7.60698 63.008C7.99098 61.856 8.18298 60.128 8.18298 57.824V10.208C8.18298 7.83998 7.99098 6.11198 7.60698 5.02398C7.22298 3.87198 6.45498 3.10398 5.30298 2.71998C4.21498 2.27198 2.58298 2.01598 0.406982 1.95198V0.0319824ZM15.671 34.112C19.127 34.24 21.847 34.4 23.831 34.592C25.815 34.72 27.415 34.848 28.631 34.976C29.911 35.104 31.127 35.264 32.279 35.456C36.567 36.16 39.639 37.472 41.495 39.392C43.415 41.248 44.823 44.16 45.719 48.128L48.119 57.92C48.759 60.736 49.399 62.784 50.039 64.064C50.743 65.28 51.799 65.856 53.207 65.792C54.295 65.728 55.191 65.376 55.895 64.736C56.663 64.096 57.463 63.232 58.295 62.144L59.735 63.2C58.391 65.184 56.983 66.72 55.511 67.808C54.103 68.832 52.087 69.344 49.463 69.344C47.095 69.344 45.015 68.64 43.223 67.232C41.431 65.824 40.087 63.072 39.191 58.976L37.079 49.376C36.503 46.624 35.831 44.256 35.063 42.272C34.359 40.224 33.335 38.624 31.991 37.472C30.711 36.32 28.791 35.744 26.231 35.744H15.863L15.671 34.112Z" fill="#FFFDEE"/>
<path d="M69.15 37.304C70.3661 37.304 71.374 37.448 72.174 37.736C72.974 37.992 73.63 38.328 74.142 38.744C74.558 39.064 74.8941 39.416 75.15 39.8C75.4061 40.184 75.598 40.568 75.726 40.952C75.854 41.336 75.918 41.704 75.918 42.056C75.918 42.856 75.6301 43.48 75.054 43.928C74.51 44.376 73.902 44.6 73.23 44.6C72.59 44.6 72.014 44.392 71.502 43.976C70.99 43.56 70.734 42.968 70.734 42.2C70.734 41.496 70.974 40.904 71.454 40.424C71.9341 39.912 72.542 39.624 73.278 39.56C73.15 39.144 72.75 38.792 72.078 38.504C71.438 38.184 70.622 38.024 69.63 38.024C67.998 38.024 66.654 38.52 65.598 39.512C64.574 40.472 64.062 41.88 64.062 43.736C64.062 44.632 64.222 45.544 64.542 46.472C64.894 47.4 65.55 48.312 66.51 49.208C67.054 49.112 67.6141 49.048 68.19 49.016C68.7661 48.952 69.198 48.92 69.486 48.92C70.062 48.92 70.526 49.016 70.878 49.208C71.23 49.4 71.406 49.672 71.406 50.024C71.406 50.312 71.278 50.536 71.022 50.696C70.798 50.856 70.478 50.936 70.062 50.936C69.454 50.936 68.814 50.808 68.142 50.552C67.47 50.264 66.942 50.04 66.558 49.88C64.702 50.424 63.198 51.32 62.046 52.568C60.894 53.784 60.318 55.512 60.318 57.752C60.318 59.96 60.894 61.832 62.046 63.368C63.198 64.904 64.734 66.088 66.654 66.92C68.606 67.72 70.782 68.12 73.182 68.12C74.878 68.12 76.4781 67.928 77.982 67.544C79.5181 67.128 80.862 66.536 82.014 65.768C83.198 65 84.126 64.088 84.798 63.032C85.47 61.944 85.806 60.712 85.806 59.336C85.806 58.728 85.678 57.96 85.422 57.032C85.166 56.072 84.638 55.144 83.838 54.248C83.038 53.32 81.806 52.6 80.142 52.088L80.718 51.608C83.054 52.312 84.718 53.448 85.71 55.016C86.702 56.552 87.198 58.28 87.198 60.2C87.198 62.12 86.622 63.96 85.47 65.72C84.318 67.48 82.6541 68.92 80.4781 70.04C78.302 71.128 75.662 71.672 72.558 71.672C70.478 71.672 68.494 71.4 66.606 70.856C64.75 70.312 63.102 69.528 61.662 68.504C60.222 67.448 59.086 66.184 58.254 64.712C57.422 63.24 57.006 61.576 57.006 59.72C57.006 57.992 57.342 56.52 58.014 55.304C58.686 54.056 59.518 53.032 60.51 52.232C61.502 51.432 62.494 50.824 63.486 50.408C64.478 49.96 65.278 49.656 65.886 49.496C64.83 49.016 63.934 48.456 63.198 47.816C62.494 47.144 61.95 46.424 61.566 45.656C61.214 44.856 61.038 44.072 61.038 43.304C61.038 42.536 61.214 41.8 61.566 41.096C61.918 40.36 62.43 39.704 63.102 39.128C63.774 38.552 64.606 38.104 65.598 37.784C66.622 37.464 67.806 37.304 69.15 37.304ZM86.622 36.344C88.606 36.344 90.27 36.92 91.614 38.072C92.958 39.192 93.63 40.776 93.63 42.824C93.63 43.912 93.422 44.888 93.006 45.752C92.622 46.584 92.078 47.32 91.374 47.96C90.702 48.6 89.934 49.128 89.07 49.544C88.334 49.896 87.358 50.28 86.142 50.696C84.958 51.112 83.678 51.528 82.302 51.944C80.958 52.36 79.662 52.776 78.414 53.192C77.198 53.576 76.206 53.912 75.438 54.2C74.2541 54.648 73.246 55.208 72.414 55.88C71.614 56.52 71.214 57.352 71.214 58.376C71.214 59.208 71.454 59.912 71.934 60.488C72.414 61.064 72.9901 61.496 73.662 61.784C74.3661 62.072 75.022 62.216 75.63 62.216C75.918 62.216 76.27 62.184 76.686 62.12C77.134 62.024 77.534 61.896 77.886 61.736C78.238 61.576 78.446 61.384 78.51 61.16C77.998 61.064 77.486 60.84 76.974 60.488C76.494 60.104 76.254 59.512 76.254 58.712C76.254 57.944 76.51 57.336 77.022 56.888C77.534 56.44 78.1581 56.216 78.8941 56.216C79.662 56.216 80.2701 56.456 80.718 56.936C81.198 57.416 81.438 58.04 81.438 58.808C81.438 59.704 81.134 60.472 80.526 61.112C79.95 61.72 79.2141 62.184 78.318 62.504C77.454 62.792 76.59 62.936 75.726 62.936C74.83 62.936 73.918 62.744 72.99 62.36C72.062 61.976 71.294 61.384 70.686 60.584C70.078 59.752 69.774 58.664 69.774 57.32C69.774 56.2 70.014 55.208 70.494 54.344C71.006 53.48 71.758 52.712 72.75 52.04C73.742 51.368 74.958 50.792 76.398 50.312C77.358 49.992 78.526 49.64 79.902 49.256C81.278 48.872 82.686 48.456 84.126 48.008C85.598 47.56 86.926 47.064 88.11 46.52C89.71 45.784 90.798 45.032 91.374 44.264C91.95 43.496 92.238 42.712 92.238 41.912C92.238 40.984 91.982 40.168 91.47 39.464C90.958 38.728 90.27 38.152 89.406 37.736C88.574 37.288 87.662 37.064 86.67 37.064C86.286 37.064 85.966 37.096 85.71 37.16C85.454 37.224 85.2941 37.336 85.23 37.496C85.678 37.72 86.014 38.04 86.238 38.456C86.462 38.872 86.574 39.288 86.574 39.704C86.574 40.376 86.302 40.936 85.758 41.384C85.246 41.832 84.622 42.056 83.886 42.056C83.278 42.056 82.702 41.864 82.158 41.48C81.614 41.064 81.342 40.456 81.342 39.656C81.342 38.824 81.614 38.168 82.158 37.688C82.734 37.208 83.422 36.872 84.222 36.68C85.054 36.456 85.854 36.344 86.622 36.344Z" fill="#FFFDEE"/>
<path d="M110.746 15.032V16.952C108.57 17.016 106.906 17.272 105.754 17.72C104.666 18.104 103.93 18.872 103.546 20.024C103.162 21.112 102.97 22.84 102.97 25.208V72.824C102.97 75.128 103.162 76.856 103.546 78.008C103.93 79.16 104.666 79.928 105.754 80.312C106.906 80.696 108.57 80.952 110.746 81.08V83C109.274 82.872 107.418 82.808 105.178 82.808C103.002 82.744 100.794 82.712 98.5544 82.712C96.0584 82.712 93.7224 82.744 91.5464 82.808C89.3704 82.808 87.6104 82.872 86.2664 83V81.08C88.4424 80.952 90.0744 80.696 91.1624 80.312C92.3144 79.928 93.0824 79.16 93.4664 78.008C93.8504 76.856 94.0424 75.128 94.0424 72.824V25.208C94.0424 22.84 93.8504 21.112 93.4664 20.024C93.0824 18.872 92.3144 18.104 91.1624 17.72C90.0744 17.272 88.4424 17.016 86.2664 16.952V15.032C87.6104 15.096 89.3704 15.16 91.5464 15.224C93.7224 15.288 96.0584 15.32 98.5544 15.32C100.794 15.32 103.002 15.288 105.178 15.224C107.418 15.16 109.274 15.096 110.746 15.032Z" fill="#FFFDEE"/>
</svg>
