<svg width="26" height="25" viewBox="0 0 26 25" fill="none" xmlns="http://www.w3.org/2000/svg">
<path d="M13 14.5833C15.2979 14.5833 17.1667 12.7146 17.1667 10.4167C17.1667 8.11875 15.2979 6.25 13 6.25C10.7021 6.25 8.83334 8.11875 8.83334 10.4167C8.83334 12.7146 10.7021 14.5833 13 14.5833ZM13 8.33333C14.149 8.33333 15.0833 9.26771 15.0833 10.4167C15.0833 11.5656 14.149 12.5 13 12.5C11.8511 12.5 10.9167 11.5656 10.9167 10.4167C10.9167 9.26771 11.8511 8.33333 13 8.33333Z" fill="black"/>
<path d="M12.3958 22.723C12.5722 22.8486 12.7834 22.9161 13 22.9161C13.2166 22.9161 13.4277 22.8486 13.6042 22.723C13.9208 22.499 21.3635 17.125 21.3333 10.4167C21.3333 5.82192 17.5948 2.08337 13 2.08337C8.4052 2.08337 4.66666 5.82192 4.66666 10.4115C4.63645 17.125 12.0792 22.499 12.3958 22.723ZM13 4.16671C16.4469 4.16671 19.25 6.96983 19.25 10.4219C19.2719 15.0448 14.6792 19.1959 13 20.5573C11.3219 19.1948 6.72811 15.0427 6.74999 10.4167C6.74999 6.96983 9.55311 4.16671 13 4.16671Z" fill="black"/>
</svg>
